<svg width="32" height="32" viewBox="0 0 32 32" fill="none" xmlns="http://www.w3.org/2000/svg">
<path d="M0.5 4C0.5 2.067 2.067 0.5 4 0.5H28C29.933 0.5 31.5 2.067 31.5 4V28C31.5 29.933 29.933 31.5 28 31.5H4C2.067 31.5 0.5 29.933 0.5 28V4Z" stroke="#D2D6DB"/>
<path fill-rule="evenodd" clip-rule="evenodd" d="M20.4137 7.50781V10.6925H18.207C17.545 10.6925 17.1037 11.1171 17.1037 11.754V13.8771H20.4137V17.0618H17.1037V24.4926H13.7936V17.0618H11.5869V13.8771H13.7936V11.2232C13.7936 9.2063 15.559 7.50781 17.6553 7.50781H20.4137Z" fill="#273242"/>
</svg>
