<svg width="32" height="32" viewBox="0 0 32 32" fill="none" xmlns="http://www.w3.org/2000/svg">
<path d="M0.5 4C0.5 2.067 2.067 0.5 4 0.5H28C29.933 0.5 31.5 2.067 31.5 4V28C31.5 29.933 29.933 31.5 28 31.5H4C2.067 31.5 0.5 29.933 0.5 28V4Z" stroke="#D2D6DB"/>
<path d="M19.7798 24.8112H12.2204C9.46443 24.8112 7.22363 22.5615 7.22363 19.7947V12.2054C7.22363 9.43861 9.46443 7.18896 12.2204 7.18896H19.7798C22.5358 7.18896 24.7766 9.43861 24.7766 12.2054V19.7947C24.7766 22.5615 22.5358 24.8112 19.7798 24.8112ZM12.2204 8.68873C10.2886 8.68873 8.73038 10.2661 8.73038 12.1925V19.7818C8.73038 21.7211 10.3015 23.2855 12.2204 23.2855H19.7798C21.7116 23.2855 23.2698 21.7082 23.2698 19.7818V12.2054C23.2698 10.2661 21.6987 8.70166 19.7798 8.70166H12.2204V8.68873Z" fill="#273242"/>
<path d="M16.0091 20.5064C13.5365 20.5064 11.5146 18.4765 11.5146 15.9941C11.5146 13.5118 13.5365 11.4819 16.0091 11.4819C18.4817 11.4819 20.5036 13.5118 20.5036 15.9941C20.5036 18.4894 18.4817 20.5064 16.0091 20.5064ZM16.0091 12.9946C14.3607 12.9946 13.0214 14.3392 13.0214 15.9941C13.0214 17.6491 14.3607 18.9937 16.0091 18.9937C17.6575 18.9937 18.9969 17.6491 18.9969 15.9941C18.9969 14.3392 17.6575 12.9946 16.0091 12.9946Z" fill="#273242"/>
<path d="M21.7622 11.2242C21.7622 11.819 21.2728 12.3103 20.6804 12.3103C20.088 12.3103 19.5986 11.819 19.5986 11.2242C19.5986 10.6295 20.088 10.1382 20.6804 10.1382C21.2857 10.1382 21.7622 10.6295 21.7622 11.2242Z" fill="#273242"/>
</svg>
