<svg width="32" height="32" viewBox="0 0 32 32" fill="none" xmlns="http://www.w3.org/2000/svg">
<path d="M0.5 4C0.5 2.067 2.067 0.5 4 0.5H28C29.933 0.5 31.5 2.067 31.5 4V28C31.5 29.933 29.933 31.5 28 31.5H4C2.067 31.5 0.5 29.933 0.5 28V4Z" stroke="#D2D6DB"/>
<path d="M6.6822 25.1675H10.7765V12.7955H6.6822V25.1675ZM8.76173 6.82471C7.3538 6.82471 6.43945 7.75078 6.43945 8.96931C6.43945 10.1553 7.32952 11.1058 8.70509 11.1058H8.72936C10.1616 11.1058 11.0516 10.1553 11.0516 8.96931C11.0274 7.75078 10.1616 6.82471 8.76173 6.82471ZM25.5598 18.0757V25.1757H21.4574V18.555C21.4574 16.8897 20.8667 15.7605 19.3778 15.7605C18.245 15.7605 17.5734 16.5241 17.274 17.2634C17.1689 17.5315 17.1365 17.897 17.1365 18.2626V25.1757H13.0503C13.0503 25.1757 13.1069 13.9571 13.0503 12.7955H17.1527V14.5501L17.1284 14.5908H17.1527V14.5501C17.6948 13.7053 18.6658 12.503 20.8424 12.503C23.5369 12.503 25.5598 14.2739 25.5598 18.0757Z" fill="#273242"/>
</svg>
