<svg width="157" height="54" viewBox="0 0 157 54" fill="none" xmlns="http://www.w3.org/2000/svg">
<path d="M132.262 45.8672C131.846 45.8672 131.511 46.2052 131.511 46.6262V50.3959C131.511 50.8105 131.846 51.1549 132.262 51.1549C132.673 51.1549 133.014 50.8169 133.014 50.3959V46.6262C133.014 46.2116 132.679 45.8672 132.262 45.8672Z" fill="#909FB8"/>
<path d="M129.243 48.6426C128.89 48.6426 128.605 48.9296 128.605 49.2868V51.9211C128.605 52.2783 128.89 52.5653 129.243 52.5653C129.597 52.5653 129.882 52.2783 129.882 51.9211V49.2868C129.882 48.9296 129.597 48.6426 129.243 48.6426Z" fill="#909FB8"/>
<path d="M135.44 39.9668C134.947 39.9668 134.543 40.375 134.543 40.8725V48.8584C134.543 49.3559 134.947 49.7641 135.44 49.7641C135.933 49.7641 136.337 49.3559 136.337 48.8584V40.8789C136.337 40.375 135.933 39.9668 135.44 39.9668Z" fill="#909FB8"/>
<path d="M129.243 37.0518C128.826 37.0518 128.491 37.3898 128.491 37.8108V41.6442C128.491 42.0588 128.826 42.4033 129.243 42.4033C129.654 42.4033 129.995 42.0652 129.995 41.6442V37.8108C129.995 37.3898 129.66 37.0518 129.243 37.0518Z" fill="#909FB8"/>
<path d="M132.262 38.4688C132.205 38.4688 132.142 38.4751 132.091 38.4879C132.041 38.4943 131.99 38.5134 131.946 38.5325C131.643 38.6601 131.44 38.9599 131.44 39.2979V43.9223C131.44 44.2668 131.655 44.5793 131.977 44.7005C131.996 44.7069 132.022 44.7133 132.053 44.726C132.085 44.7388 132.104 44.7388 132.123 44.7452C132.186 44.7579 132.23 44.7579 132.268 44.7579C132.723 44.7579 133.089 44.388 133.089 43.9287V39.3043C133.089 38.8451 132.716 38.4688 132.262 38.4688Z" fill="#909FB8"/>
<path d="M126.368 35.7002C125.996 35.7002 125.692 36.0064 125.692 36.3827V39.4699C125.692 39.8462 125.996 40.1524 126.368 40.1524C126.741 40.1524 127.044 39.8462 127.044 39.4699V36.3827C127.044 36.0064 126.741 35.7002 126.368 35.7002Z" fill="#909FB8"/>
<path d="M123.626 34.418C123.292 34.418 123.026 34.6922 123.026 35.0239V37.3967C123.026 37.7284 123.298 38.0027 123.626 38.0027C123.955 38.0027 124.227 37.7284 124.227 37.3967V35.0239C124.227 34.6859 123.955 34.418 123.626 34.418Z" fill="#909FB8"/>
<path d="M121.092 33.2188C120.821 33.2188 120.6 33.442 120.6 33.7163V35.5469C120.6 35.8212 120.821 36.0444 121.092 36.0444C121.364 36.0444 121.585 35.8212 121.585 35.5469V33.7163C121.585 33.442 121.364 33.2188 121.092 33.2188Z" fill="#909FB8"/>
<path d="M138.8 41.543C138.301 41.543 137.903 41.9512 137.903 42.4487V47.7301C137.903 48.2276 138.308 48.6358 138.8 48.6358C139.293 48.6358 139.697 48.2276 139.697 47.7301V42.4487C139.697 41.9512 139.293 41.543 138.8 41.543Z" fill="#909FB8"/>
<path d="M145.339 45.8672C145.749 45.8672 146.09 46.2052 146.09 46.6262V50.3959C146.09 50.8105 145.756 51.1549 145.339 51.1549C144.922 51.1549 144.587 50.8169 144.587 50.3959V46.6262C144.587 46.2116 144.928 45.8672 145.339 45.8672Z" fill="#909FB8"/>
<path d="M148.358 48.6426C148.712 48.6426 148.996 48.9296 148.996 49.2868V51.9211C148.996 52.2783 148.712 52.5653 148.358 52.5653C148.004 52.5653 147.72 52.2783 147.72 51.9211V49.2868C147.72 48.9296 148.004 48.6426 148.358 48.6426Z" fill="#909FB8"/>
<path d="M142.161 39.9668C142.653 39.9668 143.058 40.375 143.058 40.8725V48.8584C143.058 49.3559 142.653 49.7641 142.161 49.7641C141.662 49.7641 141.264 49.3559 141.264 48.8584V40.8789C141.264 40.375 141.668 39.9668 142.161 39.9668Z" fill="#909FB8"/>
<path d="M148.358 37.0518C148.769 37.0518 149.11 37.3898 149.11 37.8108V41.6442C149.11 42.0588 148.775 42.4033 148.358 42.4033C147.941 42.4033 147.606 42.0652 147.606 41.6442V37.8108C147.606 37.3898 147.941 37.0518 148.358 37.0518Z" fill="#909FB8"/>
<path d="M145.338 38.4688C145.395 38.4688 145.452 38.4751 145.509 38.4879C145.559 38.4943 145.61 38.5134 145.654 38.5325C145.957 38.6601 146.16 38.9599 146.16 39.2979V43.9223C146.16 44.2668 145.945 44.5793 145.623 44.7005C145.604 44.7069 145.578 44.7133 145.547 44.726C145.515 44.7388 145.496 44.7388 145.477 44.7452C145.414 44.7579 145.37 44.7579 145.332 44.7579C144.877 44.7579 144.511 44.388 144.511 43.9287V39.3043C144.511 38.8451 144.883 38.4688 145.338 38.4688Z" fill="#909FB8"/>
<path d="M151.233 35.7002C151.605 35.7002 151.909 36.0064 151.909 36.3827V39.4699C151.909 39.8462 151.605 40.1524 151.233 40.1524C150.86 40.1524 150.557 39.8462 150.557 39.4699V36.3827C150.557 36.0064 150.86 35.7002 151.233 35.7002Z" fill="#909FB8"/>
<path d="M153.974 34.418C154.303 34.418 154.574 34.6922 154.574 35.0239V37.3967C154.574 37.7284 154.303 38.0027 153.974 38.0027C153.639 38.0027 153.374 37.7284 153.374 37.3967V35.0239C153.374 34.6859 153.646 34.418 153.974 34.418Z" fill="#909FB8"/>
<path d="M156.508 33.2188C156.78 33.2188 157.001 33.442 157.001 33.7163V35.5469C157.001 35.8212 156.78 36.0444 156.508 36.0444C156.237 36.0444 156.016 35.8212 156.016 35.5469V33.7163C156.016 33.442 156.237 33.2188 156.508 33.2188Z" fill="#909FB8"/>
<path d="M128.491 2.69165V5.23028C128.491 5.64488 128.826 5.98931 129.243 5.98931C129.654 5.98931 129.995 5.65126 129.995 5.23028V2.69165C129.995 2.27705 129.66 1.93262 129.243 1.93262C128.832 1.939 128.491 2.27705 128.491 2.69165Z" fill="#41AD7A"/>
<path d="M128.491 26.9426V29.4813C128.491 29.8959 128.826 30.2403 129.243 30.2403C129.654 30.2403 129.995 29.9022 129.995 29.4813V26.9426C129.995 26.528 129.66 26.1836 129.243 26.1836C128.832 26.1836 128.491 26.5217 128.491 26.9426Z" fill="#41AD7A"/>
<path d="M147.601 2.69165V5.23028C147.601 5.64488 147.935 5.98931 148.352 5.98931C148.763 5.98931 149.104 5.65126 149.104 5.23028V2.69165C149.104 2.27705 148.769 1.93262 148.352 1.93262C147.935 1.939 147.601 2.27705 147.601 2.69165Z" fill="#2C67A7"/>
<path d="M147.601 26.9426V29.4813C147.601 29.8959 147.935 30.2403 148.352 30.2403C148.763 30.2403 149.104 29.9022 149.104 29.4813V26.9426C149.104 26.528 148.769 26.1836 148.352 26.1836C147.935 26.1836 147.601 26.5217 147.601 26.9426Z" fill="#2C67A7"/>
<path d="M134.543 7.29734V24.87C134.543 25.3675 134.947 25.7757 135.44 25.7757C135.933 25.7757 136.337 25.3675 136.337 24.87V7.29734C136.337 6.79982 135.933 6.3916 135.44 6.3916C134.941 6.3916 134.543 6.79982 134.543 7.29734Z" fill="#909FB8"/>
<path d="M128.491 10.4739V14.3775C128.491 14.7921 128.826 15.1365 129.243 15.1365C129.654 15.1365 129.995 14.7985 129.995 14.3775V10.4739C129.995 10.0593 129.66 9.71484 129.243 9.71484C128.832 9.72122 128.491 10.0593 128.491 10.4739Z" fill="#41AD7A"/>
<path d="M132.091 4.05624C132.041 4.069 131.99 4.08176 131.946 4.10089C131.636 4.22846 131.44 4.52825 131.44 4.86631V27.2993C131.44 27.6438 131.655 27.9563 131.977 28.0775C131.996 28.0839 132.015 28.0903 132.047 28.103C132.078 28.1094 132.097 28.1158 132.116 28.1222C132.18 28.1349 132.224 28.1349 132.262 28.1349C132.716 28.1349 133.083 27.765 133.083 27.3057V4.87269C133.083 4.41344 132.71 4.03711 132.262 4.03711C132.205 4.03711 132.148 4.04349 132.091 4.05624Z" fill="#2AA694"/>
<path d="M125.692 9.61316V12.8853C125.692 13.2616 125.996 13.5678 126.368 13.5678C126.741 13.5678 127.044 13.2616 127.044 12.8853V9.61316C127.044 9.23683 126.741 8.93066 126.368 8.93066C125.996 8.93066 125.692 9.23683 125.692 9.61316Z" fill="#57B45E"/>
<path d="M123.021 8.6997V11.1427C123.021 11.4807 123.292 11.7486 123.621 11.7486C123.955 11.7486 124.221 11.4743 124.221 11.1427V8.6997C124.221 8.36165 123.949 8.09375 123.621 8.09375C123.292 8.09375 123.021 8.36165 123.021 8.6997Z" fill="#65B645"/>
<path d="M134.543 7.29734V24.8764C134.543 25.3739 134.947 25.7821 135.44 25.7821C135.933 25.7821 136.337 25.3739 136.337 24.8764V7.29734C136.337 6.79982 135.933 6.3916 135.44 6.3916C134.941 6.3916 134.543 6.79982 134.543 7.29734Z" fill="#1EA6B6"/>
<path d="M128.491 17.7961V21.6998C128.491 22.1144 128.826 22.4588 129.243 22.4588C129.654 22.4588 129.995 22.1207 129.995 21.6998V17.7961C129.995 17.3815 129.66 17.0371 129.243 17.0371C128.832 17.0371 128.491 17.3752 128.491 17.7961Z" fill="#41AD7A"/>
<path d="M125.692 19.2889V22.5611C125.692 22.9374 125.996 23.2436 126.368 23.2436C126.741 23.2436 127.044 22.9374 127.044 22.5611V19.2889C127.044 18.9126 126.741 18.6064 126.368 18.6064C125.996 18.6064 125.692 18.9126 125.692 19.2889Z" fill="#57B45E"/>
<path d="M123.021 21.0299V23.4728C123.021 23.8109 123.292 24.0788 123.621 24.0788C123.955 24.0788 124.221 23.8045 124.221 23.4728V21.0299C124.221 20.6982 123.949 20.4239 123.621 20.4239C123.292 20.4176 123.021 20.6918 123.021 21.0299Z" fill="#65B645"/>
<path d="M141.251 7.29734V24.87C141.251 25.3675 141.655 25.7757 142.148 25.7757C142.641 25.7757 143.045 25.3675 143.045 24.87V7.29734C143.045 6.79982 142.641 6.3916 142.148 6.3916C141.655 6.3916 141.251 6.79982 141.251 7.29734Z" fill="#909FB8"/>
<path d="M147.601 10.4739V14.3775C147.601 14.7921 147.935 15.1365 148.352 15.1365C148.763 15.1365 149.104 14.7985 149.104 14.3775V10.4739C149.104 10.0593 148.769 9.71484 148.352 9.71484C147.935 9.72122 147.601 10.0593 147.601 10.4739Z" fill="#2C67A7"/>
<path d="M144.505 4.87322V27.2999C144.505 27.7591 144.871 28.1291 145.326 28.1291C145.364 28.1291 145.408 28.1227 145.471 28.1163C145.49 28.1163 145.509 28.1099 145.541 28.0972C145.572 28.0908 145.598 28.0844 145.617 28.0717C145.939 27.9505 146.154 27.6379 146.154 27.2935V4.87322C146.154 4.53517 145.958 4.23538 145.648 4.10781C145.598 4.08867 145.554 4.06954 145.503 4.06316C145.446 4.0504 145.389 4.04403 145.332 4.04403C144.871 4.03765 144.505 4.41398 144.505 4.87322Z" fill="#257FB5"/>
<path d="M150.55 9.61316V12.8853C150.55 13.2616 150.853 13.5678 151.226 13.5678C151.598 13.5678 151.902 13.2616 151.902 12.8853V9.61316C151.902 9.23683 151.598 8.93066 151.226 8.93066C150.853 8.93066 150.55 9.23683 150.55 9.61316Z" fill="#38549D"/>
<path d="M153.361 8.70022V11.1432C153.361 11.4812 153.633 11.7491 153.961 11.7491C154.284 11.7491 154.549 11.4876 154.562 11.1623V8.67471C154.549 8.34941 154.284 8.08789 153.961 8.08789C153.633 8.09427 153.361 8.36216 153.361 8.70022Z" fill="#3D3696"/>
<path d="M141.251 7.29734V24.8764C141.251 25.3739 141.655 25.7821 142.148 25.7821C142.641 25.7821 143.045 25.3739 143.045 24.8764V7.29734C143.045 6.79982 142.641 6.3916 142.148 6.3916C141.655 6.3916 141.251 6.79982 141.251 7.29734Z" fill="#1E96C2"/>
<path d="M147.601 17.7961V21.6998C147.601 22.1144 147.935 22.4588 148.352 22.4588C148.763 22.4588 149.104 22.1207 149.104 21.6998V17.7961C149.104 17.3815 148.769 17.0371 148.352 17.0371C147.935 17.0371 147.601 17.3752 147.601 17.7961Z" fill="#2C67A7"/>
<path d="M150.55 19.2889V22.5611C150.55 22.9374 150.853 23.2436 151.226 23.2436C151.598 23.2436 151.902 22.9374 151.902 22.5611V19.2889C151.902 18.9126 151.598 18.6064 151.226 18.6064C150.853 18.6064 150.55 18.9126 150.55 19.2889Z" fill="#38549D"/>
<path d="M153.361 21.0298V23.4728C153.361 23.8108 153.633 24.0787 153.961 24.0787C154.284 24.0787 154.549 23.8172 154.562 23.4919V20.9979C154.549 20.6726 154.284 20.4111 153.961 20.4111C153.633 20.4175 153.361 20.6918 153.361 21.0298Z" fill="#3D3696"/>
<path d="M137.891 0.905741V38.2388C137.891 38.7364 138.295 39.1446 138.788 39.1446C139.28 39.1446 139.685 38.7364 139.685 38.2388V0.905741C139.685 0.408221 139.28 0 138.788 0C138.295 0 137.891 0.408221 137.891 0.905741Z" fill="#15A3C7"/>
<path d="M0.214783 40.5995H3.80292C3.92295 40.5995 4.0177 40.5038 4.0177 40.3826V39.9872C4.0177 39.866 3.92295 39.7703 3.80292 39.7703H1.78143V38.9921C1.78143 38.6285 1.87619 38.3543 2.05939 38.1629C2.24259 37.9779 2.49527 37.8823 2.81745 37.8823C3.07645 37.8823 3.33545 37.9333 3.58182 38.0354C3.60709 38.0481 3.63868 38.0545 3.67026 38.0545C3.76502 38.0545 3.84714 37.9971 3.87241 37.9014L3.9798 37.5442C4.01139 37.4422 3.96085 37.3337 3.87241 37.2891C3.58814 37.1551 3.26596 37.085 2.89957 37.085C2.47632 37.085 2.11624 37.1615 1.81934 37.3082C1.52243 37.4549 1.2887 37.6718 1.12445 37.9461C0.966523 38.2203 0.8844 38.5329 0.8844 38.8646V39.7958H0.214783C0.0947572 39.7894 0 39.8851 0 40.0063V40.3762C0 40.4974 0.0947572 40.5995 0.214783 40.5995Z" fill="#8FA0BA"/>
<path d="M89.811 34.0097L89.9184 33.6461C89.9373 33.5823 89.8805 33.5632 89.8805 33.5632C89.7225 33.4675 89.533 33.4229 89.3182 33.4229C89.1098 33.4229 88.9266 33.4611 88.775 33.5313C88.6234 33.6078 88.5033 33.7163 88.4212 33.863C88.3391 34.0033 88.2949 34.1628 88.2949 34.335V34.6092H87.9664C87.9158 34.6092 87.8779 34.6539 87.8779 34.6985V35.0302C87.8779 35.0812 87.9158 35.1195 87.9664 35.1195H89.8299C89.8805 35.1195 89.9247 35.0812 89.9247 35.0302V34.6858C89.9247 34.6348 89.8805 34.5965 89.8299 34.5965H88.8571V34.3988C88.8571 34.2457 88.895 34.1245 88.9708 34.0479C89.0466 33.9714 89.1477 33.9331 89.2867 33.9331C89.4319 33.9331 89.5772 33.9714 89.7162 34.0416C89.7099 34.0416 89.792 34.0798 89.811 34.0097Z" fill="#8FA0BA"/>
<path d="M30.6635 42.0532L30.7709 41.6896C30.7899 41.6258 30.733 41.6067 30.733 41.6067C30.5751 41.5046 30.3856 41.46 30.1708 41.46C29.9623 41.46 29.7791 41.4982 29.6275 41.5684C29.4759 41.6449 29.3559 41.7534 29.2737 41.9001C29.1916 42.0404 29.1474 42.1999 29.1474 42.3721V42.6464H28.8189C28.7684 42.6464 28.7305 42.691 28.7305 42.7357V43.0673C28.7305 43.1184 28.7684 43.1566 28.8189 43.1566H30.6825C30.733 43.1566 30.7772 43.1184 30.7772 43.0673V42.7229C30.7772 42.6719 30.733 42.6336 30.6825 42.6336H29.7096V42.4359C29.7096 42.2828 29.7475 42.1616 29.8233 42.0851C29.8991 42.0085 30.0002 41.9702 30.1392 41.9702C30.2845 41.9702 30.4298 42.0085 30.5688 42.0787C30.5624 42.0851 30.6446 42.1233 30.6635 42.0532Z" fill="#8FA0BA"/>
<path d="M24.8771 37.9262C24.795 37.3904 24.6749 36.9758 24.517 36.7079C24.2075 36.153 23.6895 35.8724 22.982 35.8724C22.3502 35.8724 21.8006 35.9999 21.3458 36.2487C21.2447 36.3061 21.2068 36.4337 21.2637 36.5357L21.4279 36.8674C21.4658 36.9376 21.5353 36.9822 21.6174 36.9822C21.649 36.9822 21.6806 36.9758 21.7122 36.9631C22.1165 36.7717 22.4955 36.6697 22.8367 36.6697C23.2157 36.6697 23.4936 36.7781 23.6579 36.9822C23.8348 37.1991 23.9674 37.5754 24.0495 38.1048C24.2012 39.0488 24.6434 39.5591 24.8645 39.7887H19.1348V38.2962C19.1348 37.4734 18.9516 36.861 18.5789 36.4656C18.2315 36.0956 17.7198 35.8979 17.0565 35.8787H16.9617C16.4437 35.8787 15.9194 35.9999 15.4014 36.2423C14.8202 36.5102 14.0811 36.9439 13.4936 37.888V36.4656C13.4936 36.3444 13.3988 36.2487 13.2788 36.2487H12.8429C12.7229 36.2487 12.6282 36.3444 12.6282 36.4656V39.7887H6.38681V33.6016C6.38681 33.4804 6.29205 33.3848 6.17203 33.3848H5.71088C5.59085 33.3848 5.49609 33.4804 5.49609 33.6016V40.5924H25.7615C25.8563 40.5924 25.9384 40.5159 25.9384 40.4202L25.9257 39.8206C25.6036 39.5336 25.035 38.9021 24.8771 37.9262ZM13.5062 39.7951C13.5189 39.2721 13.7589 38.5768 14.1127 38.0921C14.8518 37.0588 16.0205 36.6888 16.7912 36.6888C17.2902 36.6888 17.6692 36.8228 17.9156 37.0843C18.162 37.3522 18.2883 37.7731 18.2883 38.3344V39.7951H13.5062Z" fill="#8FA0BA"/>
<path d="M27.1189 40.5993H35.3059C35.4007 40.5993 35.4828 40.5227 35.4828 40.427V33.6085C35.4828 33.4873 35.3881 33.3916 35.268 33.3916H34.7943C34.6742 33.3916 34.5795 33.4873 34.5795 33.6085V39.7956H32.3685V33.6085C32.3685 33.4873 32.2737 33.3916 32.1537 33.3916H31.6799C31.5599 33.3916 31.4651 33.4873 31.4651 33.6085V39.7956H30.2649L29.0899 34.8204C29.0646 34.7247 28.9825 34.6545 28.8814 34.6545H28.3887C28.3255 34.6545 28.2623 34.6864 28.2181 34.7375C28.1739 34.7885 28.1613 34.8586 28.1802 34.9224L29.3299 39.7956H27.1252C27.0052 39.7956 26.9105 39.8912 26.9105 40.0124V40.376C26.9041 40.4972 26.9989 40.5993 27.1189 40.5993Z" fill="#8FA0BA"/>
<path d="M72.0528 40.4207V33.6085C72.0528 33.4873 71.9581 33.3916 71.838 33.3916H71.3642C71.2442 33.3916 71.1495 33.4873 71.1495 33.6085V39.7956H65.4577C65.1355 39.7956 64.8134 39.7382 64.4849 39.6234C64.9902 39.2662 65.3882 38.8005 65.6851 38.2456C65.9631 37.7098 66.1147 37.1358 66.14 36.5362C66.1463 36.4341 66.0957 36.3384 66.0073 36.2874C65.7041 36.0961 65.344 35.9366 64.9397 35.8218C64.5859 35.7197 64.188 35.6687 63.771 35.6687C63.3351 35.6687 62.9309 35.7197 62.5645 35.8282C62.1665 35.943 61.8127 36.0961 61.5158 36.2874C61.4337 36.3384 61.3832 36.4341 61.3832 36.5362C61.4021 37.1358 61.5537 37.7098 61.838 38.2456C62.1286 38.8069 62.5329 39.2725 63.0509 39.6361C62.7666 39.7445 62.4128 39.802 62.0022 39.802H56.7969V33.6148C56.7969 33.4937 56.7021 33.398 56.5821 33.398H56.1083C55.9883 33.398 55.8936 33.4937 55.8936 33.6148V40.427C55.8936 40.5227 55.9694 40.6056 56.0641 40.6056H62.0086C62.6276 40.6056 63.2214 40.4462 63.7458 40.1336C64.3269 40.4462 64.9208 40.6056 65.5019 40.6056H71.8822C71.977 40.5993 72.0528 40.5163 72.0528 40.4207ZM62.7034 38.1244C62.476 37.7481 62.3434 37.3016 62.3118 36.8105C62.735 36.5872 63.2025 36.4788 63.6826 36.4788H63.8342C64.3206 36.4788 64.7818 36.5936 65.205 36.8105C65.1734 37.308 65.0408 37.7481 64.8134 38.1244C64.5796 38.5071 64.2195 38.8707 63.771 39.196C63.2972 38.8707 62.9372 38.5071 62.7034 38.1244Z" fill="#8FA0BA"/>
<path d="M75.0421 33.3916H74.5683C74.4483 33.3916 74.3535 33.4873 74.3535 33.6085V40.3824C74.3535 40.5036 74.4483 40.5993 74.5683 40.5993H75.0421C75.1621 40.5993 75.2569 40.5036 75.2569 40.3824V33.6085C75.2569 33.4873 75.1621 33.3916 75.0421 33.3916Z" fill="#8FA0BA"/>
<path d="M109.16 40.5993C109.255 40.5993 109.337 40.5227 109.337 40.427V33.6085C109.337 33.4873 109.243 33.3916 109.123 33.3916H108.649C108.529 33.3916 108.434 33.4873 108.434 33.6085V39.7956H104.435V38.2456C104.435 37.2442 104.151 36.4533 103.595 35.8983C103.039 35.3434 102.231 35.0628 101.207 35.0628C100.563 35.0628 99.9564 35.1393 99.4131 35.2988C99.3562 35.3115 99.312 35.3498 99.2868 35.4008C99.2615 35.4518 99.2552 35.5156 99.2678 35.573L99.3689 35.9111C99.3942 36.0004 99.4826 36.0642 99.5774 36.0642C99.5963 36.0642 99.6089 36.0642 99.6279 36.0578C100.196 35.9238 100.695 35.8664 101.207 35.8664C102.022 35.8664 102.629 36.0642 103.001 36.4596C103.38 36.8551 103.57 37.4802 103.57 38.3221V39.7956H102.603V38.59C102.603 37.2314 101.978 36.5362 100.74 36.5362C100.392 36.5362 100.064 36.6191 99.7732 36.7786C99.4384 36.9635 99.1857 37.2314 99.0088 37.5822C98.8698 37.8629 98.8067 38.1754 98.8193 38.5199C98.8319 38.8197 98.8888 39.0812 99.0025 39.2981C99.1036 39.5022 99.2425 39.668 99.4005 39.7956H94.9279V36.1917C94.9279 36.0706 94.8332 35.9749 94.7131 35.9749H94.2394C94.1193 35.9749 94.0246 36.0706 94.0246 36.1917V39.7956H89.3688V36.1917C89.3688 36.0706 89.2741 35.9749 89.1541 35.9749H88.6803C88.5603 35.9749 88.4655 36.0706 88.4655 36.1917V39.7956H83.2602V36.1854C83.2602 36.0642 83.1654 35.9685 83.0454 35.9685H81.8072C81.0176 35.9685 80.3732 36.1854 79.9058 36.6191C79.4383 37.0528 79.1982 37.6333 79.1982 38.354C79.1982 39.0748 79.413 39.6361 79.8363 40.0188C80.2595 40.4015 80.8596 40.5993 81.6177 40.5993H109.16ZM100.695 37.4292C101.39 37.4292 101.731 37.8565 101.731 38.7304V39.7956H100.992C100.613 39.7956 100.304 39.6808 100.07 39.4511C99.8364 39.2215 99.7163 38.9217 99.7163 38.5518C99.7163 38.1818 99.8048 37.9012 99.9753 37.7162C100.146 37.5248 100.392 37.4292 100.695 37.4292ZM82.3884 36.7722V39.7956H81.5924C81.1123 39.7956 80.7396 39.6744 80.4806 39.432C80.2216 39.1896 80.089 38.826 80.089 38.3413C80.089 37.8565 80.2406 37.4738 80.5438 37.1932C80.8407 36.9125 81.2766 36.7658 81.8262 36.7658H82.3884V36.7722Z" fill="#8FA0BA"/>
<path d="M112.078 33.3916H111.604C111.484 33.3916 111.39 33.4873 111.39 33.6085V40.3824C111.39 40.5036 111.484 40.5993 111.604 40.5993H112.078C112.198 40.5993 112.293 40.5036 112.293 40.3824V33.6085C112.293 33.4873 112.198 33.3916 112.078 33.3916Z" fill="#8FA0BA"/>
<path d="M49.0211 40.5931C49.6212 40.5804 50.0255 40.3507 50.234 39.8979C50.5435 40.3826 51.1373 40.5931 52.186 40.5931H54.0685C54.1632 40.5931 54.2391 40.5166 54.2391 40.4209V38.2459C54.2391 36.7469 53.5315 35.9879 52.1354 35.9879C50.7204 35.9879 49.8044 36.9638 49.8044 38.4755C49.8044 39.6364 49.4191 39.7958 49.0085 39.7958H43.3988V36.1856C43.3988 36.0644 43.3041 35.9688 43.1841 35.9688H41.9459C41.1563 35.9688 40.5119 36.1856 40.0444 36.6194C39.577 37.0531 39.3369 37.6335 39.3369 38.3543C39.3369 39.0751 39.5517 39.6364 39.9749 40.0191C40.3982 40.4018 40.9983 40.5995 41.7564 40.5995C49.0148 40.5931 49.0211 40.5931 49.0211 40.5931ZM42.5334 36.7724V39.7958H41.7374C41.2573 39.7958 40.8846 39.6746 40.6256 39.4323C40.3666 39.1899 40.2339 38.8263 40.2339 38.3415C40.2339 37.8568 40.3856 37.4741 40.6825 37.1934C40.9794 36.9128 41.4153 36.7724 41.9648 36.7724H42.5334ZM52.0723 36.7405C52.944 36.7405 53.3294 37.2508 53.3294 38.3862V39.7894H52.2997C51.1942 39.7894 50.7394 39.3812 50.7394 38.3862C50.7394 37.372 51.251 36.7405 52.0723 36.7405Z" fill="#8FA0BA"/>
<path d="M95.5465 41.4727H95.098C95.0348 41.4727 94.978 41.4982 94.9337 41.5428C94.8832 41.5875 94.8643 41.6449 94.8643 41.715V42.4294C94.8643 42.4932 94.8895 42.5506 94.9337 42.5953C94.978 42.6463 95.0348 42.6654 95.1043 42.6654H95.5528C95.616 42.6654 95.6729 42.6399 95.7171 42.5953C95.7613 42.5506 95.7866 42.4932 95.7866 42.4294V41.715C95.7866 41.6513 95.7613 41.5938 95.7171 41.5428C95.6665 41.4918 95.6097 41.4727 95.5465 41.4727Z" fill="#8FA0BA"/>
<path d="M93.8477 41.4727H93.3992C93.3361 41.4727 93.2792 41.4982 93.2287 41.5428C93.1844 41.5875 93.1592 41.6449 93.1592 41.715V42.4294C93.1592 42.4932 93.1844 42.5506 93.2287 42.5953C93.2792 42.6463 93.3297 42.6654 93.3992 42.6654H93.8477C93.9109 42.6654 93.9678 42.6399 94.012 42.5953C94.0625 42.5506 94.0815 42.4932 94.0815 42.4294V41.715C94.0815 41.6513 94.0562 41.5938 94.012 41.5428C93.9678 41.4918 93.9172 41.4727 93.8477 41.4727Z" fill="#8FA0BA"/>
<path d="M82.5149 35.3236H82.9634C83.0266 35.3236 83.0835 35.2981 83.1277 35.2535C83.1782 35.2088 83.1972 35.1514 83.1972 35.0813V34.3669C83.1972 34.3031 83.1719 34.2457 83.1277 34.201C83.0835 34.15 83.0266 34.1309 82.9571 34.1309H82.5086C82.4454 34.1309 82.3886 34.1564 82.338 34.201C82.2938 34.2457 82.2686 34.3031 82.2686 34.3669V35.0813C82.2686 35.145 82.2938 35.2024 82.338 35.2535C82.3949 35.2981 82.4518 35.3236 82.5149 35.3236Z" fill="#8FA0BA"/>
<path d="M80.8143 35.3236H81.2628C81.326 35.3236 81.3828 35.2981 81.4334 35.2535C81.4776 35.2088 81.5028 35.1514 81.5028 35.0813V34.3669C81.5028 34.3031 81.4776 34.2457 81.4334 34.201C81.3828 34.15 81.3323 34.1309 81.2628 34.1309H80.8143C80.7511 34.1309 80.6942 34.1564 80.6437 34.201C80.5995 34.2457 80.5742 34.3031 80.5742 34.3669V35.0813C80.5742 35.145 80.5995 35.2024 80.6437 35.2535C80.6942 35.2981 80.7511 35.3236 80.8143 35.3236Z" fill="#8FA0BA"/>
<path d="M42.761 35.3236H43.2095C43.2727 35.3236 43.3296 35.2981 43.3738 35.2535C43.4243 35.2088 43.4433 35.1514 43.4433 35.0813V34.3669C43.4433 34.3031 43.418 34.2457 43.3738 34.201C43.3296 34.15 43.2727 34.1309 43.2032 34.1309H42.7547C42.6915 34.1309 42.6347 34.1564 42.5841 34.201C42.5399 34.2457 42.5146 34.3031 42.5146 34.3669V35.0813C42.5146 35.145 42.5399 35.2024 42.5841 35.2535C42.641 35.2981 42.6978 35.3236 42.761 35.3236Z" fill="#8FA0BA"/>
<path d="M41.0613 35.3236H41.5099C41.573 35.3236 41.6299 35.2981 41.6804 35.2535C41.7246 35.2088 41.7499 35.1514 41.7499 35.0813V34.3669C41.7499 34.3031 41.7246 34.2457 41.6804 34.201C41.6299 34.15 41.5793 34.1309 41.5099 34.1309H41.0613C40.9982 34.1309 40.9413 34.1564 40.8908 34.201C40.8466 34.2457 40.8213 34.3031 40.8213 34.3669V35.0813C40.8213 35.145 40.8466 35.2024 40.8908 35.2535C40.9413 35.2981 40.9982 35.3236 41.0613 35.3236Z" fill="#8FA0BA"/>
<path d="M3.99244 48.8146H3.52497C3.46811 48.8146 3.42389 48.8338 3.38599 48.8784C3.3544 48.9167 3.33545 48.9677 3.33545 49.0251V51.4936C3.23438 51.5063 3.10172 51.5127 2.94379 51.5255C2.76691 51.5382 2.54581 51.5446 2.28049 51.5446C2.08466 51.5446 1.89514 51.5063 1.72458 51.4362C1.55402 51.366 1.40241 51.2512 1.27606 51.0917C1.14972 50.9323 1.04233 50.7282 0.97284 50.4794C0.897035 50.2306 0.859132 49.9245 0.859132 49.5673V48.4C0.859132 48.0173 0.903352 47.692 0.985475 47.4369C1.0676 47.1817 1.18131 46.9776 1.31397 46.8309C1.45294 46.6778 1.61087 46.5758 1.78775 46.5184C1.97095 46.461 2.16046 46.4291 2.35629 46.4291C2.53949 46.4291 2.70374 46.4291 2.85535 46.4355L3.26596 46.4418C3.39231 46.4482 3.51233 46.4482 3.63236 46.461C3.75238 46.4674 3.87241 46.4801 4.00507 46.4929H4.04297C4.17563 46.4929 4.18827 46.4099 4.18827 46.3717V45.9252C4.18827 45.855 4.15668 45.8167 4.13141 45.804C4.09983 45.7849 4.06192 45.7721 4.0177 45.7657C3.84714 45.7338 3.63236 45.7083 3.36704 45.6828C3.10172 45.6573 2.76691 45.6445 2.36261 45.6445C2.08466 45.6445 1.80039 45.6892 1.52243 45.7721C1.23816 45.855 0.985475 46.0081 0.764375 46.2186C0.543274 46.4291 0.360077 46.7161 0.2211 47.0669C0.0694886 47.4241 0 47.8706 0 48.4064V49.58C0 50.0839 0.0694886 50.5177 0.202149 50.8621C0.334809 51.2129 0.511689 51.5 0.726472 51.7104C0.941255 51.9273 1.18762 52.0868 1.45926 52.1824C1.7309 52.2781 2.00885 52.3292 2.28049 52.3292C2.68479 52.3292 3.02591 52.3164 3.29123 52.2909C3.55655 52.2654 3.7966 52.2335 4.01139 52.1952C4.13141 52.1761 4.19458 52.0995 4.19458 51.9656V49.0251C4.19458 48.9677 4.17563 48.9231 4.13773 48.8784C4.09351 48.8401 4.04929 48.8146 3.99244 48.8146Z" fill="#8FA0BA"/>
<path d="M8.53437 47.8958C8.37012 47.7172 8.16797 47.5705 7.92792 47.4748C7.68787 47.3792 7.4036 47.3281 7.08774 47.3281C6.46234 47.3281 5.96961 47.5195 5.6348 47.8894C5.29999 48.2594 5.13574 48.776 5.13574 49.4075V50.1921C5.13574 50.6003 5.1926 50.9447 5.3063 51.219C5.42001 51.4933 5.57162 51.7101 5.75482 51.876C5.93802 52.0418 6.15912 52.1566 6.39917 52.2268C6.63922 52.2906 6.88559 52.3288 7.13196 52.3288C7.42887 52.3288 7.7005 52.3161 7.94687 52.2906C8.19324 52.2651 8.44593 52.2268 8.68598 52.1821C8.7681 52.1694 8.81864 52.1439 8.84391 52.1056C8.86917 52.0673 8.88813 52.0163 8.88813 51.9525V51.6527C8.88813 51.5953 8.86917 51.5507 8.83127 51.5251C8.79969 51.506 8.76178 51.4933 8.71756 51.4933H8.66703C8.46488 51.5188 8.22483 51.5443 7.94055 51.5634C7.65628 51.5826 7.38465 51.5889 7.13196 51.5889C6.74661 51.5889 6.44971 51.4869 6.25388 51.2764C6.05805 51.0723 5.95697 50.7087 5.95697 50.1984V50.1091H8.81864C8.89444 50.1091 9.01447 50.0772 9.01447 49.8859V49.4139C9.01447 49.1013 8.97025 48.8143 8.89444 48.5592C8.81864 48.2977 8.69861 48.0744 8.53437 47.8958ZM5.96961 49.4075C5.96961 48.9483 6.06436 48.6038 6.26019 48.387C6.44971 48.1701 6.73398 48.068 7.10037 48.068C7.46677 48.068 7.75104 48.1701 7.92792 48.3742C8.11112 48.5783 8.19956 48.9227 8.19956 49.4075V49.4522H5.96961V49.4075Z" fill="#8FA0BA"/>
<path d="M12.0901 47.3281C11.8311 47.3281 11.591 47.3664 11.3763 47.4302C11.1804 47.494 10.972 47.5896 10.7445 47.7108V47.596C10.7445 47.5386 10.7256 47.4876 10.6877 47.4493C10.6498 47.4047 10.5992 47.3855 10.5424 47.3855H10.1128C10.056 47.3855 10.0117 47.4047 9.97385 47.4493C9.93594 47.494 9.91699 47.5386 9.91699 47.596V52.0546C9.91699 52.112 9.93594 52.1566 9.97385 52.2013C10.0117 52.2459 10.0623 52.2651 10.1128 52.2651H10.5361C10.5929 52.2651 10.6371 52.2459 10.6814 52.2013C10.7256 52.163 10.7445 52.112 10.7445 52.0546V48.3933C10.9404 48.2977 11.1299 48.2211 11.3194 48.1573C11.5089 48.0935 11.6984 48.0616 11.8816 48.0616C12.0396 48.0616 12.1785 48.0808 12.2986 48.1191C12.4123 48.1573 12.507 48.2147 12.5828 48.2977C12.6586 48.3806 12.7155 48.4954 12.7471 48.6357C12.785 48.7824 12.8039 48.961 12.8039 49.1843V52.0546C12.8039 52.112 12.8229 52.1566 12.8671 52.2013C12.905 52.2459 12.9555 52.2651 13.0124 52.2651H13.4293C13.4862 52.2651 13.5304 52.2459 13.5746 52.2013C13.6125 52.163 13.6378 52.112 13.6378 52.0546V49.1779C13.6378 48.5911 13.5178 48.1318 13.2714 47.8129C13.0187 47.494 12.6207 47.3281 12.0901 47.3281Z" fill="#8FA0BA"/>
<path d="M17.9348 47.8958C17.7705 47.7108 17.5684 47.5705 17.3283 47.4748C17.0883 47.3792 16.804 47.3281 16.4881 47.3281C15.8564 47.3281 15.37 47.5195 15.0352 47.8894C14.7004 48.2594 14.5361 48.776 14.5361 49.4075V50.1921C14.5361 50.6003 14.593 50.9511 14.7067 51.219C14.8204 51.4933 14.972 51.7101 15.1552 51.876C15.3384 52.0418 15.5532 52.1566 15.7932 52.2268C16.0333 52.2906 16.2797 52.3288 16.5324 52.3288C16.8293 52.3288 17.1009 52.3161 17.3473 52.2906C17.5936 52.2651 17.8463 52.2268 18.0864 52.1821C18.1622 52.1694 18.219 52.1439 18.2443 52.1056C18.2696 52.0673 18.2885 52.0163 18.2885 51.9525V51.6527C18.2885 51.5762 18.2569 51.5443 18.2317 51.5251C18.2001 51.506 18.1622 51.4933 18.118 51.4933H18.0674C17.8653 51.5188 17.6252 51.5443 17.3409 51.5634C17.0567 51.5826 16.785 51.5889 16.5324 51.5889C16.147 51.5889 15.8501 51.4869 15.6543 51.2764C15.4584 51.0723 15.3637 50.7087 15.3637 50.1984V50.1091H18.2253C18.3012 50.1091 18.4212 50.0772 18.4212 49.8859V49.4139C18.4212 49.1013 18.377 48.8143 18.3012 48.5592C18.219 48.2977 18.0927 48.0744 17.9348 47.8958ZM15.3637 49.4075C15.3637 48.9483 15.4584 48.6038 15.6543 48.387C15.8438 48.1701 16.1281 48.068 16.4944 48.068C16.8608 48.068 17.1451 48.1701 17.322 48.3742C17.5052 48.5783 17.5936 48.9291 17.5936 49.4075V49.4522H15.3637V49.4075Z" fill="#8FA0BA"/>
<path d="M21.3019 47.3281C21.0998 47.3281 20.8976 47.36 20.6955 47.4302C20.5123 47.4876 20.3165 47.5896 20.1143 47.7236V47.6024C20.1143 47.545 20.0954 47.494 20.0575 47.4557C20.0196 47.411 19.969 47.3919 19.9185 47.3919H19.5142C19.4573 47.3919 19.4131 47.411 19.3752 47.4557C19.3373 47.5003 19.3184 47.545 19.3184 47.6024V52.0609C19.3184 52.1183 19.3373 52.163 19.3752 52.2076C19.4131 52.2523 19.4637 52.2714 19.5142 52.2714H19.9374C19.9943 52.2714 20.0385 52.2523 20.0827 52.2076C20.127 52.1694 20.1459 52.1183 20.1459 52.0609L20.127 48.4316C20.3417 48.2977 20.5439 48.2084 20.7334 48.1509C20.9166 48.0999 21.1124 48.068 21.3083 48.068C21.4978 48.068 21.523 47.9532 21.523 47.8831V47.5195C21.523 47.3983 21.4409 47.3281 21.3019 47.3281Z" fill="#8FA0BA"/>
<path d="M23.8671 47.3281C23.5765 47.3281 23.3175 47.3409 23.1028 47.3664C22.888 47.3919 22.6921 47.4174 22.5153 47.4429C22.3384 47.4685 22.3068 47.5641 22.3068 47.6407V47.9468C22.3068 48.017 22.3257 48.068 22.37 48.0872C22.4079 48.1063 22.4458 48.1191 22.4963 48.1191H22.5405C22.7111 48.0999 22.9069 48.0872 23.1217 48.0744C23.3365 48.0617 23.5892 48.0489 23.8671 48.0489C24.1956 48.0489 24.4294 48.1191 24.562 48.2594C24.6947 48.3997 24.7578 48.6485 24.7578 49.0057V49.3246H24.1514C23.7661 49.3246 23.4312 49.3565 23.1659 49.4139C22.9006 49.4713 22.6732 49.567 22.5089 49.6882C22.3384 49.8093 22.2184 49.9688 22.1425 50.1474C22.0667 50.326 22.0352 50.5429 22.0352 50.7789V50.8873C22.0352 51.1616 22.0731 51.3976 22.1552 51.5826C22.2373 51.7675 22.3447 51.9206 22.4774 52.029C22.61 52.1439 22.7679 52.2204 22.9385 52.2651C23.1091 52.3097 23.2923 52.3352 23.4818 52.3352C23.7281 52.3352 23.9619 52.2906 24.183 52.2076C24.3851 52.1311 24.5873 52.0354 24.7768 51.927V52.0609C24.7768 52.1183 24.7957 52.163 24.84 52.2076C24.8842 52.2523 24.9284 52.2714 24.9853 52.2714H25.3832C25.4401 52.2714 25.4843 52.2523 25.5285 52.2076C25.5664 52.163 25.5917 52.1183 25.5917 52.0609V49.0057C25.5917 48.489 25.459 48.0744 25.1874 47.7746C24.9158 47.4812 24.4736 47.3281 23.8671 47.3281ZM22.8627 50.7661C22.8627 50.613 22.8817 50.4855 22.9196 50.3834C22.9575 50.2814 23.0206 50.1984 23.1154 50.1346C23.2101 50.0709 23.3428 50.0198 23.507 49.9879C23.6776 49.9561 23.8987 49.9433 24.1514 49.9433H24.7578V51.2955C24.5557 51.404 24.3662 51.4869 24.1893 51.5443C24.0124 51.6017 23.8166 51.6272 23.6208 51.6272C23.3744 51.6272 23.1849 51.5762 23.0522 51.4741C22.9259 51.3721 22.8564 51.168 22.8564 50.8682V50.7661H22.8627Z" fill="#8FA0BA"/>
<path d="M27.3158 45.625H26.8672C26.8104 45.625 26.7662 45.6441 26.7283 45.6824C26.6967 45.7207 26.6777 45.7653 26.6777 45.8227V52.0609C26.6777 52.1183 26.6967 52.1629 26.7283 52.2076C26.7662 52.2522 26.8104 52.2713 26.8672 52.2713H27.3158C27.3726 52.2713 27.4168 52.2522 27.4547 52.2076C27.4863 52.1693 27.5053 52.1183 27.5053 52.0609V45.8227C27.5053 45.7653 27.4863 45.7207 27.4547 45.6824C27.4232 45.6441 27.3726 45.625 27.3158 45.625Z" fill="#8FA0BA"/>
<path d="M33.9429 46.3207C33.905 46.1803 33.8545 46.0655 33.785 45.9826C33.7155 45.8933 33.6397 45.8231 33.5576 45.7721C33.4754 45.7211 33.387 45.6828 33.2986 45.67C33.2101 45.6509 33.1217 45.6445 33.0396 45.6445C32.9574 45.6445 32.869 45.6573 32.7742 45.6764C32.6795 45.6956 32.591 45.7338 32.5089 45.7849C32.4268 45.8359 32.351 45.906 32.2815 45.9953C32.212 46.0846 32.1615 46.1995 32.1236 46.3334L30.5253 52.023C30.519 52.0421 30.5127 52.0613 30.5127 52.0995C30.5127 52.2143 30.5759 52.2717 30.6959 52.2717H31.2076C31.2518 52.2717 31.2897 52.2526 31.3276 52.2207C31.3592 52.1888 31.3845 52.1569 31.3971 52.1123L31.9467 50.1222H34.1387L34.6946 52.1123C34.7073 52.1506 34.7262 52.1824 34.7515 52.2143C34.7831 52.2462 34.821 52.2654 34.8715 52.2654H35.3769C35.4906 52.2654 35.5601 52.2016 35.5601 52.0931C35.5601 52.0613 35.5538 52.0357 35.5475 52.023L33.9429 46.3207ZM32.1173 49.3696L32.8943 46.5375C32.9258 46.4163 32.989 46.4036 33.0332 46.4036C33.0775 46.4036 33.1343 46.4163 33.1659 46.5375L33.9429 49.3696H32.1173Z" fill="#8FA0BA"/>
<path d="M39.7169 47.3926H39.2936C39.2368 47.3926 39.1926 47.4117 39.1484 47.4564C39.1041 47.501 39.0852 47.5457 39.0852 47.6031V51.2643C38.8893 51.36 38.6998 51.4365 38.5103 51.5003C38.3208 51.5641 38.1313 51.596 37.9481 51.596C37.7838 51.596 37.6449 51.5768 37.5312 51.5386C37.4175 51.5003 37.3227 51.4429 37.2532 51.36C37.1774 51.2771 37.1205 51.1622 37.089 51.0219C37.0511 50.8752 37.0321 50.6902 37.0321 50.4734V47.6031C37.0321 47.5457 37.0132 47.501 36.9689 47.4564C36.9247 47.4117 36.8805 47.3926 36.8236 47.3926H36.4067C36.3499 47.3926 36.3056 47.4117 36.2614 47.4564C36.2172 47.501 36.1982 47.5457 36.1982 47.6031V50.4797C36.1982 51.0666 36.3183 51.5258 36.5646 51.8447C36.811 52.17 37.2027 52.3295 37.7396 52.3295C37.9986 52.3295 38.2387 52.2976 38.4535 52.2274C38.6493 52.1637 38.8641 52.068 39.0852 51.9468V52.0616C39.0852 52.119 39.1041 52.17 39.142 52.2083C39.1799 52.253 39.2305 52.2721 39.281 52.2721H39.7169C39.7737 52.2721 39.818 52.253 39.8559 52.2083C39.8938 52.1637 39.9127 52.119 39.9127 52.0616V47.6031C39.9127 47.5457 39.8938 47.501 39.8559 47.4564C39.8243 47.4117 39.7737 47.3926 39.7169 47.3926Z" fill="#8FA0BA"/>
<path d="M42.8626 51.6337H42.3762C42.2119 51.6337 42.0982 51.6019 42.0351 51.5445C41.9908 51.5062 41.9403 51.3977 41.9403 51.1171V48.1065H42.8437C42.9005 48.1065 42.9447 48.0873 42.989 48.0427C43.0332 48.0044 43.0521 47.9534 43.0521 47.896V47.5962C43.0521 47.5388 43.0332 47.4941 42.989 47.4495C42.9447 47.4048 42.9005 47.3857 42.8437 47.3857H41.9403V46.4672C41.9403 46.4098 41.9277 46.3651 41.8898 46.3333C41.8582 46.3014 41.8203 46.2822 41.7445 46.2822L41.2896 46.3524C41.1696 46.3715 41.1064 46.4481 41.1064 46.5629V51.1171C41.1064 51.3595 41.1317 51.5572 41.1823 51.7103C41.2328 51.8698 41.3086 51.9909 41.4097 52.0866C41.5107 52.1759 41.6371 52.2397 41.7887 52.2716C41.9403 52.3035 42.1172 52.3226 42.3193 52.3226C42.4015 52.3226 42.4962 52.3162 42.5973 52.3099C42.6984 52.3035 42.7994 52.2907 42.8879 52.278C43.0395 52.2525 43.0711 52.1632 43.0711 52.093V51.7932C43.0774 51.7167 43.0395 51.6337 42.8626 51.6337Z" fill="#8FA0BA"/>
<path d="M47.0755 47.7687C46.9366 47.622 46.766 47.5072 46.5702 47.437C46.3743 47.3668 46.1595 47.3286 45.9258 47.3286C45.7426 47.3286 45.5215 47.3477 45.2751 47.3924C45.0477 47.4306 44.8329 47.4944 44.6308 47.5773V45.8296C44.6308 45.7722 44.6118 45.7276 44.5739 45.6829C44.536 45.6383 44.4855 45.6191 44.435 45.6191H44.0054C43.9486 45.6191 43.9043 45.6383 43.8664 45.6829C43.8285 45.7212 43.8096 45.7722 43.8096 45.8296V52.055C43.8096 52.1124 43.8285 52.1571 43.8664 52.2017C43.9043 52.2464 43.9549 52.2655 44.0054 52.2655H44.4287C44.4855 52.2655 44.5297 52.2464 44.5739 52.2017C44.6182 52.1634 44.6371 52.1124 44.6371 52.055V48.2981C44.7256 48.2598 44.8203 48.2279 44.9214 48.2024C45.0351 48.1705 45.1425 48.145 45.2499 48.1259C45.3573 48.1067 45.4583 48.0876 45.5531 48.0812C45.6479 48.0748 45.73 48.0685 45.7995 48.0685C46.0711 48.0685 46.2922 48.145 46.4501 48.3045C46.6081 48.4576 46.6902 48.7573 46.6902 49.1783V52.055C46.6902 52.1124 46.7091 52.1634 46.7534 52.2017C46.7976 52.2464 46.8418 52.2655 46.8987 52.2655H47.3156C47.3724 52.2655 47.4167 52.2464 47.4609 52.2017C47.5051 52.1634 47.5241 52.1124 47.5241 52.055V49.1783C47.5241 48.8594 47.4862 48.5724 47.4103 48.3427C47.3282 48.1131 47.2145 47.9154 47.0755 47.7687Z" fill="#8FA0BA"/>
<path d="M51.8326 47.9282C51.6683 47.7368 51.4598 47.5901 51.2135 47.488C50.9671 47.386 50.6828 47.335 50.3607 47.335C50.0385 47.335 49.7542 47.386 49.5142 47.488C49.2741 47.5901 49.0656 47.7432 48.9014 47.9282C48.7372 48.1195 48.6108 48.3491 48.5287 48.617C48.4466 48.8785 48.4023 49.1783 48.4023 49.5036V50.167C48.4023 50.4923 48.4466 50.7857 48.5287 51.0536C48.6108 51.3215 48.7372 51.5511 48.9014 51.7361C49.0656 51.9274 49.2741 52.0742 49.5142 52.1762C49.7542 52.2783 50.0448 52.3293 50.3607 52.3293C50.6828 52.3293 50.9671 52.2783 51.2135 52.1762C51.4598 52.0742 51.6683 51.9211 51.8326 51.7361C51.9968 51.5447 52.1231 51.3151 52.2053 51.0536C52.2874 50.7857 52.3253 50.4923 52.3253 50.167V49.4973C52.3253 49.172 52.2811 48.8785 52.2053 48.6107C52.1231 48.3491 51.9968 48.1195 51.8326 47.9282ZM50.367 51.5894C49.969 51.5894 49.6784 51.4618 49.5078 51.2131C49.331 50.9579 49.2425 50.6071 49.2425 50.167V49.4973C49.2425 49.0508 49.331 48.6999 49.5142 48.4448C49.691 48.1961 49.9816 48.0685 50.3733 48.0685C50.7713 48.0685 51.0619 48.1961 51.2387 48.4448C51.4219 48.6999 51.5104 49.0508 51.5104 49.4909V50.1542C51.5104 50.6007 51.4156 50.9515 51.2324 51.2067C51.0429 51.4618 50.7586 51.5894 50.367 51.5894Z" fill="#8FA0BA"/>
<path d="M55.2238 47.3281C55.0217 47.3281 54.8195 47.36 54.6174 47.4302C54.4342 47.4876 54.2383 47.5896 54.0362 47.7236V47.6024C54.0362 47.545 54.0172 47.494 53.9793 47.4557C53.9414 47.411 53.8909 47.3919 53.8404 47.3919H53.4361C53.3792 47.3919 53.335 47.411 53.2971 47.4557C53.2592 47.5003 53.2402 47.545 53.2402 47.6024V52.0609C53.2402 52.1183 53.2592 52.163 53.2971 52.2076C53.335 52.2523 53.3855 52.2714 53.4361 52.2714H53.8593C53.9162 52.2714 53.9604 52.2523 54.0046 52.2076C54.0488 52.1694 54.0678 52.1183 54.0678 52.0609L54.0488 48.4316C54.2636 48.2977 54.4658 48.2084 54.6553 48.1509C54.8385 48.0999 55.0343 48.068 55.2301 48.068C55.4197 48.068 55.4449 47.9532 55.4449 47.8831V47.5195C55.4386 47.3983 55.3628 47.3281 55.2238 47.3281Z" fill="#8FA0BA"/>
<path d="M56.849 47.3926H56.4321C56.3752 47.3926 56.331 47.4117 56.2868 47.4564C56.2426 47.501 56.2236 47.5457 56.2236 47.6031V52.0616C56.2236 52.119 56.2426 52.17 56.2868 52.2083C56.331 52.253 56.3752 52.2721 56.4321 52.2721H56.849C56.9059 52.2721 56.9501 52.253 56.9943 52.2083C57.0385 52.17 57.0575 52.119 57.0575 52.0616V47.6031C57.0575 47.5457 57.0385 47.4946 56.9943 47.4564C56.9501 47.4117 56.8996 47.3926 56.849 47.3926Z" fill="#8FA0BA"/>
<path d="M56.8616 45.5742H56.4194C56.3625 45.5742 56.3183 45.5934 56.2741 45.638C56.2299 45.6763 56.2109 45.7273 56.2109 45.7847V46.4863C56.2109 46.5437 56.2299 46.5884 56.2741 46.633C56.3183 46.6713 56.3625 46.6968 56.4194 46.6968H56.8616C56.9185 46.6968 56.9627 46.6777 57.0069 46.633C57.0511 46.5884 57.0701 46.5437 57.0701 46.4863V45.7847C57.0701 45.7273 57.0511 45.6763 57.0069 45.638C56.969 45.5934 56.9185 45.5742 56.8616 45.5742Z" fill="#8FA0BA"/>
<path d="M60.012 51.6337H59.5256C59.3614 51.6337 59.2477 51.6019 59.1845 51.5445C59.1403 51.5062 59.0897 51.3977 59.0897 51.1171V48.1065H59.9931C60.0499 48.1065 60.0941 48.0873 60.1384 48.0427C60.1826 48.0044 60.2015 47.9534 60.2015 47.896V47.5962C60.2015 47.5388 60.1826 47.4941 60.1384 47.4495C60.0941 47.4048 60.0499 47.3857 59.9931 47.3857H59.0897V46.4672C59.0897 46.4098 59.0771 46.3651 59.0392 46.3333C59.0076 46.3014 58.9697 46.2822 58.8939 46.2822L58.4391 46.3524C58.319 46.3715 58.2559 46.4481 58.2559 46.5629V51.1171C58.2559 51.3595 58.2811 51.5572 58.3317 51.7103C58.3822 51.8634 58.458 51.9909 58.5591 52.0866C58.6602 52.1759 58.7865 52.2397 58.9381 52.2716C59.0897 52.3035 59.2666 52.3226 59.4688 52.3226C59.5509 52.3226 59.6456 52.3162 59.7467 52.3099C59.8478 52.3035 59.9489 52.2907 60.0373 52.278C60.1889 52.2525 60.2205 52.1632 60.2205 52.093V51.7932C60.2268 51.7167 60.1889 51.6337 60.012 51.6337Z" fill="#8FA0BA"/>
<path d="M64.6684 47.3926H64.182C64.1315 47.3926 64.0873 47.4117 64.0557 47.4436C64.0241 47.4755 63.9988 47.5074 63.9862 47.552L62.9375 51.5258H62.8238C62.7986 51.5258 62.7796 51.5194 62.7543 51.5003C62.7417 51.4939 62.7164 51.462 62.6912 51.36L61.6678 47.5648C61.6552 47.5265 61.6362 47.4883 61.6046 47.4564C61.573 47.4181 61.5351 47.399 61.4909 47.399H61.0108C60.8908 47.399 60.8213 47.4627 60.8213 47.5839C60.8213 47.6222 60.8276 47.6413 60.8339 47.6541L61.9836 51.6534C62.0279 51.7873 62.0721 51.9021 62.1163 51.9851C62.1668 52.068 62.2174 52.1381 62.2742 52.1764C62.3311 52.2211 62.3943 52.2466 62.4637 52.2593C62.5269 52.2721 62.5901 52.2785 62.6533 52.2785H62.7354L62.6596 52.5974C62.628 52.7441 62.5838 52.8653 62.5332 52.961C62.489 53.0503 62.4322 53.1268 62.369 53.1778C62.3058 53.2289 62.23 53.2671 62.1416 53.2863C62.0531 53.3054 61.9457 53.3182 61.8257 53.3182C61.731 53.3182 61.5983 53.3118 61.4404 53.299C61.2824 53.2863 61.1561 53.2735 61.0234 53.2608C60.8529 53.2608 60.8276 53.3692 60.8276 53.433V53.7583C60.8276 53.8348 60.8655 53.8667 60.8971 53.8858C60.935 53.905 60.9792 53.9177 61.0361 53.9305C61.1308 53.956 61.2445 53.9751 61.3835 53.9879C61.5225 54.0007 61.6488 54.007 61.7752 54.007C62.0279 54.007 62.2363 53.9815 62.4132 53.9369C62.5901 53.8922 62.7417 53.8093 62.8617 53.7072C62.9881 53.6052 63.0891 53.4649 63.1713 53.299C63.2471 53.1332 63.3229 52.9291 63.3924 52.6931L64.82 47.6605C64.8264 47.6413 64.8327 47.6158 64.8327 47.5839C64.839 47.4564 64.7758 47.3926 64.6684 47.3926Z" fill="#8FA0BA"/>
<path d="M69.8745 45.5994C69.8176 45.5866 69.7481 45.5739 69.6723 45.5611C69.5965 45.5484 69.5017 45.542 69.3817 45.542C69.1922 45.542 69.0153 45.5611 68.8637 45.5994C68.7121 45.6377 68.5731 45.7078 68.4657 45.8035C68.3583 45.8992 68.2762 46.0331 68.2194 46.1926C68.1625 46.3521 68.1372 46.5562 68.1372 46.7922V47.3917H67.3286C67.2718 47.3917 67.2276 47.4109 67.1897 47.4428C67.1518 47.481 67.1328 47.5257 67.1328 47.5831V47.8191C67.1328 47.8956 67.1644 47.9913 67.3286 48.0105L68.1372 48.1061V52.0671C68.1372 52.1246 68.1562 52.1692 68.2004 52.2139C68.2446 52.2585 68.2889 52.2776 68.3457 52.2776H68.769C68.8258 52.2776 68.87 52.2585 68.9079 52.2139C68.9458 52.1756 68.9648 52.1246 68.9648 52.0671V48.1125H69.8429C69.9692 48.1125 70.0387 48.0487 70.0387 47.9275V47.5831C70.0387 47.5257 70.0197 47.481 69.9818 47.4428C69.9439 47.4045 69.8997 47.3917 69.8429 47.3917H68.9648V46.7922C68.9648 46.5625 69.0027 46.4095 69.0659 46.3329C69.1354 46.2564 69.268 46.2181 69.4575 46.2181H69.8745C70.0387 46.2181 70.064 46.1161 70.064 46.0523V45.7652C70.064 45.6887 70.0008 45.6313 69.8745 45.5994Z" fill="#8FA0BA"/>
<path d="M73.9536 47.9282C73.7894 47.7368 73.5809 47.5901 73.3346 47.488C73.0882 47.386 72.8039 47.335 72.4818 47.335C72.1596 47.335 71.8753 47.386 71.6353 47.488C71.3889 47.5901 71.1867 47.7432 71.0225 47.9282C70.8582 48.1195 70.7319 48.3491 70.6498 48.617C70.5677 48.8849 70.5234 49.1783 70.5234 49.5036V50.167C70.5234 50.4859 70.5677 50.7857 70.6498 51.0536C70.7319 51.3215 70.8582 51.5511 71.0225 51.7361C71.1867 51.9274 71.3952 52.0742 71.6353 52.1762C71.8753 52.2783 72.1596 52.3293 72.4818 52.3293C72.8039 52.3293 73.0882 52.2783 73.3346 52.1762C73.5809 52.0742 73.7894 51.9211 73.9536 51.7361C74.1179 51.5447 74.2442 51.3151 74.3264 51.0536C74.4085 50.7857 74.4527 50.4923 74.4527 50.167V49.4973C74.4527 49.172 74.4085 48.8785 74.3264 48.6107C74.2442 48.3491 74.1179 48.1195 73.9536 47.9282ZM72.4818 51.5894C72.0838 51.5894 71.7932 51.4618 71.6226 51.2131C71.4457 50.9579 71.3573 50.6071 71.3573 50.167V49.4973C71.3573 49.0508 71.4521 48.6999 71.6289 48.4448C71.8058 48.1961 72.0964 48.0685 72.4881 48.0685C72.8861 48.0685 73.1766 48.1961 73.3535 48.4448C73.5304 48.6999 73.6252 49.0508 73.6252 49.4909V50.1542C73.6252 50.6007 73.5304 50.9515 73.3472 51.2067C73.164 51.4618 72.8734 51.5894 72.4818 51.5894Z" fill="#8FA0BA"/>
<path d="M77.3469 47.3281C77.1447 47.3281 76.9426 47.36 76.7404 47.4302C76.5572 47.4876 76.3614 47.5896 76.1592 47.7236V47.6024C76.1592 47.545 76.1403 47.494 76.1024 47.4557C76.0645 47.411 76.0139 47.3919 75.9634 47.3919H75.5591C75.5023 47.3919 75.458 47.411 75.4201 47.4557C75.3822 47.5003 75.3633 47.545 75.3633 47.6024V52.0609C75.3633 52.1183 75.3822 52.163 75.4201 52.2076C75.458 52.2523 75.5086 52.2714 75.5591 52.2714H75.9824C76.0392 52.2714 76.0834 52.2523 76.1277 52.2076C76.1719 52.1694 76.1908 52.1183 76.1908 52.0609L76.1719 48.4316C76.3867 48.2977 76.5888 48.2084 76.772 48.1509C76.9552 48.0999 77.151 48.068 77.3469 48.068C77.5364 48.068 77.5616 47.9532 77.5616 47.8831V47.5195C77.5616 47.3983 77.4858 47.3281 77.3469 47.3281Z" fill="#8FA0BA"/>
<path d="M83.6201 49.5992C83.5127 49.4589 83.3674 49.3185 83.1905 49.1718C83.0199 49.0315 82.8052 48.8848 82.5588 48.7317L81.7628 48.2533C81.4406 48.0556 81.2006 47.8834 81.0553 47.7303C80.91 47.5836 80.8405 47.4177 80.8405 47.22C80.8405 46.9138 80.9353 46.7034 81.1248 46.5949C81.3206 46.4801 81.6428 46.4227 82.085 46.4227C82.3377 46.4227 82.603 46.4291 82.8746 46.4418C83.1463 46.4546 83.38 46.4674 83.5885 46.4737C83.7022 46.4737 83.7654 46.4099 83.7654 46.3015V45.9252C83.7654 45.855 83.7338 45.7721 83.5885 45.7466C83.5064 45.7338 83.4053 45.7211 83.2853 45.7083C83.1652 45.6956 83.0326 45.6828 82.8999 45.6764C82.7609 45.67 82.6283 45.6573 82.483 45.6509C82.3377 45.6445 82.205 45.6445 82.0787 45.6445C81.4091 45.6445 80.8847 45.7721 80.5247 46.0272C80.1583 46.2824 79.9688 46.6842 79.9688 47.2264C79.9688 47.5836 80.0698 47.8898 80.272 48.1449C80.4741 48.3936 80.7773 48.6488 81.1753 48.8912L82.0155 49.4078C82.2113 49.529 82.3756 49.6374 82.5082 49.7331C82.6409 49.8288 82.7483 49.9181 82.8241 50.0074C82.8999 50.0903 82.9568 50.1796 82.9883 50.2625C83.0199 50.3455 83.0389 50.4475 83.0389 50.5496C83.0389 50.6963 83.0199 50.8366 82.982 50.9578C82.9441 51.079 82.881 51.1874 82.7862 51.2703C82.6914 51.3596 82.5651 51.4234 82.3945 51.4744C82.2303 51.5255 82.0155 51.551 81.7565 51.551C81.6617 51.551 81.548 51.551 81.4217 51.5446L81.0427 51.5382C80.91 51.5382 80.7837 51.5318 80.6636 51.5255C80.5373 51.5191 80.4299 51.5127 80.3036 51.5C80.2593 51.5 80.2151 51.5127 80.1772 51.5446C80.1393 51.5765 80.1204 51.6211 80.1204 51.6785V52.0294C80.1204 52.0804 80.133 52.125 80.1519 52.1569C80.1772 52.1888 80.2278 52.208 80.3099 52.2207C80.4994 52.2526 80.7142 52.2781 80.9416 52.3036C81.1753 52.3292 81.447 52.3419 81.7502 52.3419C82.1798 52.3419 82.5398 52.2909 82.8178 52.1888C83.0957 52.0868 83.3232 51.9464 83.4874 51.7806C83.6453 51.6148 83.7654 51.417 83.8285 51.2002C83.8917 50.9897 83.9233 50.7728 83.9233 50.5623C83.9233 50.3837 83.898 50.2179 83.8538 50.0648C83.8096 49.8926 83.7338 49.7395 83.6201 49.5992Z" fill="#8FA0BA"/>
<path d="M86.5384 51.6337H86.052C85.8877 51.6337 85.774 51.6019 85.7108 51.5445C85.6666 51.5062 85.6161 51.3977 85.6161 51.1171V48.1065H86.5194C86.5763 48.1065 86.6205 48.0873 86.6647 48.0427C86.709 48.0044 86.7279 47.9534 86.7279 47.896V47.5962C86.7279 47.5388 86.709 47.4941 86.6647 47.4495C86.6205 47.4048 86.5763 47.3857 86.5194 47.3857H85.6161V46.4672C85.6161 46.4098 85.6034 46.3651 85.5655 46.3333C85.534 46.3014 85.4961 46.2822 85.4203 46.2822L84.9654 46.3524C84.8454 46.3715 84.7822 46.4481 84.7822 46.5629V51.1171C84.7822 51.3595 84.8075 51.5572 84.858 51.7103C84.9086 51.8698 84.9844 51.9909 85.0854 52.0866C85.1865 52.1759 85.3129 52.2397 85.4645 52.2716C85.6161 52.3035 85.793 52.3226 85.9951 52.3226C86.0772 52.3226 86.172 52.3162 86.2731 52.3099C86.3741 52.3035 86.4752 52.2907 86.5637 52.278C86.7153 52.2525 86.7469 52.1632 86.7469 52.093V51.7932C86.7532 51.7167 86.7153 51.6337 86.5384 51.6337Z" fill="#8FA0BA"/>
<path d="M89.2739 47.3281C88.9833 47.3281 88.7243 47.3409 88.5095 47.3664C88.3011 47.3919 88.1052 47.4174 87.922 47.4429C87.7515 47.4685 87.7136 47.5641 87.7136 47.6407V47.9468C87.7136 48.017 87.7325 48.068 87.7767 48.0872C87.8146 48.1063 87.8525 48.1191 87.9031 48.1191H87.9473C88.1179 48.0999 88.3137 48.0872 88.5285 48.0744C88.7433 48.0617 88.996 48.0489 89.2739 48.0489C89.6024 48.0489 89.8361 48.1191 89.9688 48.2594C90.1014 48.3997 90.1709 48.6485 90.1709 49.0057V49.3246H89.5645C89.1791 49.3246 88.8443 49.3565 88.579 49.4139C88.3074 49.4713 88.0863 49.567 87.922 49.6882C87.7515 49.8093 87.6314 49.9688 87.5556 50.1474C87.4798 50.326 87.4482 50.5429 87.4482 50.7789V50.8873C87.4482 51.1616 87.4861 51.3976 87.5683 51.5826C87.6504 51.7675 87.7578 51.9206 87.8905 52.029C88.0231 52.1439 88.181 52.2268 88.3579 52.2651C88.5285 52.3097 88.7117 52.3352 88.9012 52.3352C89.1476 52.3352 89.3813 52.2906 89.6024 52.2076C89.8045 52.1311 90.0067 52.0354 90.1962 51.927V52.0609C90.1962 52.1183 90.2152 52.163 90.2594 52.2076C90.3036 52.2523 90.3478 52.2714 90.4047 52.2714H90.8027C90.8595 52.2714 90.9037 52.2523 90.9479 52.2076C90.9922 52.163 91.0111 52.1183 91.0111 52.0609V49.0057C91.0111 48.489 90.8785 48.0744 90.6068 47.7746C90.3225 47.4812 89.8804 47.3281 89.2739 47.3281ZM88.2632 50.7661C88.2632 50.613 88.2821 50.4855 88.32 50.3834C88.3579 50.2814 88.4211 50.1984 88.5158 50.1346C88.6106 50.0709 88.7433 50.0198 88.9075 49.9879C89.0781 49.9561 89.2992 49.9433 89.5519 49.9433H90.1583V51.2955C89.9562 51.404 89.7666 51.4869 89.5898 51.5443C89.4129 51.6017 89.217 51.6272 89.0212 51.6272C88.7748 51.6272 88.5853 51.5762 88.4527 51.4741C88.3263 51.3721 88.2568 51.168 88.2568 50.8682V50.7661H88.2632Z" fill="#8FA0BA"/>
<path d="M93.8021 51.6337H93.3156C93.1514 51.6337 93.0377 51.6019 92.9745 51.5445C92.9303 51.5062 92.8798 51.3977 92.8798 51.1171V48.1065H93.7831C93.84 48.1065 93.8842 48.0873 93.9284 48.0427C93.9726 48.0044 93.9916 47.9534 93.9916 47.896V47.5962C93.9916 47.5388 93.9726 47.4941 93.9284 47.4495C93.8842 47.4048 93.84 47.3857 93.7831 47.3857H92.8798V46.4672C92.8798 46.4098 92.8671 46.3651 92.8292 46.3333C92.7976 46.3014 92.7597 46.2822 92.6839 46.2822L92.2291 46.3524C92.1091 46.3715 92.0459 46.4481 92.0459 46.5629V51.1171C92.0459 51.3595 92.0712 51.5572 92.1217 51.7103C92.1722 51.8634 92.248 51.9909 92.3491 52.0866C92.4502 52.1759 92.5765 52.2397 92.7281 52.2716C92.8798 52.3035 93.0566 52.3226 93.2588 52.3226C93.3409 52.3226 93.4357 52.3162 93.5367 52.3099C93.6378 52.3035 93.7389 52.2907 93.8273 52.278C93.9789 52.2525 94.0105 52.1632 94.0105 52.093V51.7932C94.0168 51.7167 93.9789 51.6337 93.8021 51.6337Z" fill="#8FA0BA"/>
<path d="M95.4261 45.5742H94.9839C94.927 45.5742 94.8828 45.5934 94.8386 45.638C94.7943 45.6763 94.7754 45.7273 94.7754 45.7847V46.4863C94.7754 46.5437 94.7943 46.5884 94.8386 46.633C94.8828 46.6713 94.927 46.6968 94.9839 46.6968H95.4261C95.4829 46.6968 95.5271 46.6777 95.5713 46.633C95.6093 46.5884 95.6345 46.5437 95.6345 46.4863V45.7847C95.6345 45.7273 95.6156 45.6763 95.5713 45.638C95.5334 45.5934 95.4829 45.5742 95.4261 45.5742Z" fill="#8FA0BA"/>
<path d="M95.4135 47.3926H94.9966C94.9397 47.3926 94.8955 47.4117 94.8513 47.4564C94.807 47.501 94.7881 47.5457 94.7881 47.6031V52.0616C94.7881 52.119 94.807 52.17 94.8513 52.2083C94.8955 52.2466 94.9397 52.2721 94.9966 52.2721H95.4135C95.4703 52.2721 95.5146 52.253 95.5588 52.2083C95.603 52.17 95.6219 52.119 95.6219 52.0616V47.6031C95.6219 47.5457 95.603 47.4946 95.5588 47.4564C95.5146 47.4117 95.464 47.3926 95.4135 47.3926Z" fill="#8FA0BA"/>
<path d="M98.7747 49.6754L97.9156 49.1587C97.7197 49.0439 97.5681 48.9419 97.4734 48.8462C97.3786 48.7569 97.3344 48.6485 97.3344 48.5273C97.3344 48.3168 97.3975 48.1956 97.5365 48.1382C97.6818 48.0808 97.8713 48.0553 98.1114 48.0553C98.3514 48.0553 98.5978 48.0616 98.8505 48.0808C99.1032 48.0999 99.299 48.1127 99.4822 48.1254C99.5959 48.1254 99.6591 48.0617 99.6591 47.9405V47.6534C99.6591 47.5705 99.6275 47.4685 99.4696 47.4429C99.2674 47.4047 99.0463 47.3792 98.8189 47.36C98.5915 47.3409 98.3514 47.3281 98.1114 47.3281C97.884 47.3281 97.6755 47.3473 97.4797 47.3792C97.2838 47.4174 97.1196 47.4812 96.9743 47.5705C96.829 47.6662 96.7153 47.7874 96.6332 47.9405C96.5511 48.0935 96.5068 48.2849 96.5068 48.5209C96.5068 48.8079 96.589 49.0567 96.7595 49.2544C96.9238 49.4522 97.1385 49.6371 97.4102 49.803L98.282 50.326C98.5283 50.4727 98.6989 50.6003 98.7873 50.696C98.8758 50.7916 98.92 50.9001 98.92 51.0213C98.92 51.2509 98.8568 51.404 98.7178 51.4805C98.5789 51.5634 98.3704 51.6081 98.0924 51.6081C98.0103 51.6081 97.9156 51.6081 97.8082 51.6017C97.7008 51.5953 97.5808 51.5889 97.4544 51.5762C97.3281 51.5698 97.2017 51.557 97.0817 51.5443C96.9553 51.5315 96.8416 51.5188 96.7343 51.506H96.7027C96.6521 51.506 96.6016 51.5188 96.57 51.5507C96.5321 51.5826 96.5131 51.6208 96.5131 51.6719V51.978C96.5131 52.0482 96.5511 52.1439 96.7216 52.1821C96.8227 52.2076 96.9427 52.2332 97.0754 52.2459C97.2017 52.2587 97.3281 52.2714 97.4544 52.2842C97.5808 52.2969 97.7008 52.3033 97.8145 52.3033C97.9282 52.3097 98.023 52.3097 98.1051 52.3097C98.3451 52.3097 98.5725 52.2842 98.7747 52.2332C98.9768 52.1821 99.1537 52.1056 99.299 52.0035C99.4443 51.9015 99.558 51.7612 99.6401 51.5953C99.7223 51.4295 99.7602 51.2317 99.7602 51.0085C99.7602 50.747 99.6907 50.5046 99.5454 50.3005C99.3875 50.1091 99.1348 49.8923 98.7747 49.6754Z" fill="#8FA0BA"/>
<path d="M102.381 51.6337H101.895C101.731 51.6337 101.617 51.6019 101.554 51.5445C101.509 51.5062 101.459 51.3977 101.459 51.1171V48.1065H102.362C102.419 48.1065 102.463 48.0873 102.508 48.0427C102.552 48.0044 102.571 47.9534 102.571 47.896V47.5962C102.571 47.5388 102.552 47.4941 102.508 47.4495C102.47 47.4048 102.419 47.3857 102.362 47.3857H101.459V46.4672C101.459 46.4098 101.446 46.3651 101.408 46.3333C101.377 46.3014 101.339 46.2822 101.263 46.2822L100.808 46.3524C100.688 46.3715 100.625 46.4481 100.625 46.5629V51.1171C100.625 51.3595 100.65 51.5572 100.701 51.7103C100.751 51.8634 100.827 51.9909 100.928 52.0866C101.029 52.1759 101.156 52.2397 101.307 52.2716C101.459 52.3035 101.636 52.3226 101.838 52.3226C101.92 52.3226 102.015 52.3162 102.116 52.3099C102.217 52.3035 102.318 52.2907 102.406 52.278C102.558 52.2525 102.59 52.1632 102.59 52.093V51.7932C102.596 51.7167 102.558 51.6337 102.381 51.6337Z" fill="#8FA0BA"/>
<path d="M103.999 47.3984H103.582C103.526 47.3984 103.481 47.4176 103.437 47.4622C103.399 47.5069 103.374 47.5515 103.374 47.6089V52.0675C103.374 52.1249 103.393 52.1759 103.437 52.2142C103.481 52.2588 103.526 52.278 103.582 52.278H103.999C104.056 52.278 104.1 52.2588 104.145 52.2142C104.189 52.1759 104.208 52.1249 104.208 52.0675V47.6089C104.208 47.5515 104.189 47.5005 104.145 47.4622C104.1 47.4176 104.05 47.3984 103.999 47.3984Z" fill="#8FA0BA"/>
<path d="M104.018 45.5801H103.576C103.519 45.5801 103.475 45.5992 103.43 45.6439C103.386 45.6821 103.367 45.7332 103.367 45.7906V46.4922C103.367 46.5496 103.386 46.5943 103.43 46.6389C103.475 46.6836 103.519 46.7027 103.576 46.7027H104.018C104.075 46.7027 104.119 46.6836 104.163 46.6389C104.207 46.6006 104.226 46.5496 104.226 46.4922V45.7906C104.226 45.7332 104.207 45.6821 104.163 45.6439C104.119 45.5992 104.068 45.5801 104.018 45.5801Z" fill="#8FA0BA"/>
<path d="M108.124 47.4365C107.972 47.4046 107.808 47.3855 107.625 47.3663C107.435 47.3472 107.239 47.3408 107.037 47.3408C106.74 47.3408 106.469 47.3918 106.235 47.4939C106.001 47.596 105.799 47.749 105.641 47.934C105.483 48.119 105.363 48.3486 105.281 48.6165C105.199 48.8844 105.161 49.1778 105.161 49.5031V50.1856C105.161 50.5109 105.205 50.8043 105.281 51.0722C105.363 51.3401 105.49 51.5697 105.648 51.7547C105.812 51.9397 106.008 52.0864 106.241 52.1884C106.475 52.2905 106.74 52.3415 107.037 52.3415C107.239 52.3415 107.442 52.3351 107.625 52.316C107.814 52.2969 107.979 52.2777 108.124 52.2459C108.2 52.2331 108.257 52.2076 108.282 52.1693C108.307 52.131 108.326 52.0864 108.326 52.0162V51.7037C108.326 51.6335 108.294 51.5952 108.269 51.5761C108.231 51.5506 108.193 51.5378 108.143 51.5378H108.105C107.915 51.5634 107.745 51.5761 107.587 51.5825C107.429 51.5889 107.246 51.5952 107.031 51.5952C106.69 51.5952 106.431 51.4804 106.254 51.2508C106.077 51.0212 105.982 50.6576 105.982 50.1729V49.4967C105.982 49.012 106.077 48.6484 106.254 48.4188C106.437 48.1892 106.696 48.0743 107.031 48.0743C107.246 48.0743 107.429 48.0807 107.587 48.0871C107.745 48.0935 107.915 48.1126 108.111 48.1317H108.143C108.193 48.1317 108.231 48.119 108.269 48.0935C108.294 48.0743 108.326 48.0361 108.326 47.9659V47.6534C108.326 47.5832 108.313 47.5258 108.282 47.4939C108.25 47.4684 108.2 47.4493 108.124 47.4365Z" fill="#8FA0BA"/>
<path d="M111.327 49.6881L110.468 49.1714C110.272 49.0566 110.121 48.9482 110.026 48.8589C109.931 48.7696 109.887 48.6612 109.887 48.54C109.887 48.3295 109.95 48.2083 110.089 48.1509C110.235 48.0935 110.424 48.068 110.664 48.068C110.904 48.068 111.151 48.0743 111.403 48.0935C111.656 48.1126 111.852 48.1254 112.035 48.1381C112.149 48.1381 112.212 48.0743 112.212 47.9532V47.6661C112.212 47.5832 112.18 47.4811 112.022 47.4556C111.82 47.4174 111.599 47.3918 111.372 47.3727C111.144 47.3536 110.904 47.3408 110.664 47.3408C110.437 47.3408 110.228 47.36 110.032 47.3918C109.843 47.4301 109.672 47.4939 109.527 47.5832C109.382 47.6789 109.268 47.8001 109.186 47.9532C109.104 48.1062 109.06 48.304 109.06 48.5336C109.06 48.8206 109.142 49.0694 109.312 49.2671C109.476 49.4648 109.691 49.6498 109.963 49.8157L110.835 50.3387C111.081 50.4854 111.252 50.613 111.34 50.7086C111.429 50.8043 111.473 50.9128 111.473 51.0339C111.473 51.2636 111.41 51.4167 111.271 51.4932C111.132 51.5761 110.923 51.6208 110.645 51.6208C110.563 51.6208 110.468 51.6208 110.361 51.6144C110.254 51.608 110.133 51.6016 110.007 51.5889C109.881 51.5825 109.754 51.5697 109.634 51.557C109.508 51.5442 109.394 51.5315 109.287 51.5187H109.255C109.205 51.5187 109.154 51.5315 109.123 51.5634C109.085 51.5952 109.066 51.6335 109.066 51.6845V51.9907C109.066 52.0609 109.104 52.1566 109.274 52.1948C109.375 52.2203 109.495 52.2459 109.628 52.2586C109.754 52.2714 109.881 52.2841 110.007 52.2969C110.133 52.3096 110.254 52.316 110.367 52.316C110.481 52.3224 110.576 52.3224 110.658 52.3224C110.898 52.3224 111.125 52.2969 111.327 52.2459C111.53 52.1948 111.706 52.1183 111.852 52.0162C111.997 51.9142 112.111 51.7738 112.193 51.608C112.275 51.4422 112.313 51.2444 112.313 51.0212C112.313 50.7597 112.243 50.5173 112.098 50.3132C111.94 50.1154 111.688 49.8986 111.327 49.6881Z" fill="#8FA0BA"/>
</svg>
