<svg width="72" height="40" viewBox="0 0 72 40" fill="none" xmlns="http://www.w3.org/2000/svg">
<path d="M16 4C16 1.79086 17.7909 0 20 0H52C54.2091 0 56 1.79086 56 4V36C56 38.2091 54.2091 40 52 40H20C17.7909 40 16 38.2091 16 36V4Z" fill="#E5E7EB"/>
<path d="M44 15.4964V15.9196C43.8707 16.3259 43.582 16.5819 43.2097 16.7583C43.0595 16.8301 42.908 16.898 42.7512 16.9529C41.6343 17.3448 40.5162 17.7288 39.4006 18.1246C39.1851 18.2017 38.9813 18.3127 38.7775 18.4185C38.626 18.4982 38.5371 18.6354 38.5358 18.8078C38.5319 19.12 38.5162 19.4361 38.5489 19.7457C38.7383 21.5628 39.1054 23.3511 39.4385 25.1446C39.6488 26.2784 39.8656 27.4097 40.072 28.5435C40.1817 29.1509 39.8695 29.633 39.2752 29.8015C39.2203 29.8158 39.1681 29.8367 39.1145 29.8537H38.6142C38.0185 29.693 37.7573 29.2515 37.6423 28.6898C37.5796 28.3828 37.5287 28.0719 37.4595 27.7663C37.1407 26.3816 36.8246 24.997 36.4902 23.6162C36.4171 23.3145 36.2864 23.0232 36.1532 22.741C36.0408 22.502 35.9298 22.5111 35.7979 22.7449C35.7535 22.822 35.713 22.903 35.6842 22.9879C35.5797 23.2962 35.4556 23.6019 35.3838 23.9193C35.0415 25.4555 34.7084 26.9943 34.3832 28.5357C34.2552 29.1405 34.0501 29.6682 33.3813 29.8537H32.881C32.7791 29.8198 32.6759 29.791 32.5753 29.7518C32.0815 29.5585 31.8176 29.1078 31.9117 28.5879C32.2892 26.4874 32.6889 24.3922 33.0469 22.2891C33.2232 21.2545 33.3564 20.2095 33.4505 19.1644C33.5184 18.4094 33.3604 18.2448 32.6367 18.0188C31.5433 17.6766 30.4447 17.3487 29.3579 16.9882C29.034 16.8811 28.7113 16.7269 28.4344 16.5297C27.7708 16.0555 27.8936 14.9099 28.6251 14.5415C28.8511 14.4292 29.0823 14.4396 29.3174 14.5102C30.9137 14.9922 32.5361 15.3501 34.1885 15.5878C35.5405 15.7812 36.8847 15.7368 38.2276 15.5238C39.7036 15.2913 41.1549 14.9517 42.5905 14.5376C43.2411 14.3508 43.7022 14.5951 43.9203 15.243C43.9477 15.3266 43.9739 15.4115 44 15.4964Z" fill="#1F2A37"/>
<path d="M38.1519 12.3005C38.1519 13.4866 37.1839 14.4559 35.9991 14.4559C34.8143 14.4572 33.8451 13.4879 33.8438 12.3018C33.8438 11.1157 34.8117 10.1465 35.9978 10.1465C37.1839 10.1465 38.1519 11.1131 38.1519 12.3005Z" fill="#1F2A37"/>
</svg>
