<svg width="32" height="32" viewBox="0 0 32 32" fill="none" xmlns="http://www.w3.org/2000/svg">
<path d="M0.5 4C0.5 2.067 2.067 0.5 4 0.5H28C29.933 0.5 31.5 2.067 31.5 4V28C31.5 29.933 29.933 31.5 28 31.5H4C2.067 31.5 0.5 29.933 0.5 28V4Z" stroke="#D2D6DB"/>
<path d="M6.94865 7.45361L13.9719 16.8814L6.9043 24.5467H8.49493L14.6826 17.8356L19.6821 24.5467H25.0951L17.6767 14.5885L24.2551 7.45361H22.6645L16.966 13.6343L12.3616 7.45361H6.94865ZM9.2878 8.6299H11.7745L22.7556 23.3702H20.2688L9.2878 8.6299Z" fill="#273242"/>
</svg>
